# xmcd
#
# Track frame offsets: 
#        150
#        22003
#        50876
#        73734
#        93019
#        114271
#        139410
#        164953
#        186011
#
# Disc length: 3154 seconds
#
# Revision: 1
# Processed by: cddbd v1.5.2PL0 Copyright (c) Steve Scherf et al.
# Submitted via: ExactAudioCopy v0.99pb5
#
DISCID=840c5009
DTITLE=Stevie Ray Vaughan and Double Trouble - Live Alive [Disc 1]
DYEAR=1986
DGENRE=Blues
TTITLE0=Say What!
TTITLE1=Ain't Gone 'N' Give Up on Love
TTITLE2=Pride and Joy
TTITLE3=Mary Had a Little Lamb
TTITLE4=Superstition
TTITLE5=I'm Leaving You (Commit a Crime)
TTITLE6=Cold Shot
TTITLE7=Willie the Wimp
TTITLE8=Little Wing/Third Stone from the Sun
EXTD=
EXTT0=
EXTT1=
EXTT2=
EXTT3=
EXTT4=
EXTT5=
EXTT6=
EXTT7=
EXTT8=
PLAYORDER=
